<?xml version="1.0" encoding="UTF-8"?>
<!DOCTYPE svg PUBLIC "-//W3C//DTD SVG 1.1//EN" "http://www.w3.org/Graphics/SVG/1.1/DTD/svg11.dtd">
<svg version="1.1" xmlns="http://www.w3.org/2000/svg" xmlns:xlink="http://www.w3.org/1999/xlink" x="0" y="0" width="411" height="528" viewBox="0, 0, 411, 528">
  <g id="Layer_1">
    <path d="M165.38,419.788 C165.38,419.788 119.894,375.14 105.67,377.165 C91.46,379.204 82.179,456.632 82.179,456.632 C82.179,456.632 119.571,476.917 144.011,466.743 C177.72,452.716 165.38,419.788 165.38,419.788" fill="#84BF41"/>
    <path d="M165.38,419.788 L169.163,415.934 C169.102,415.876 158.164,405.136 145.192,394.298 C138.698,388.876 131.709,383.431 125.182,379.227 C121.912,377.124 118.76,375.328 115.735,373.991 C114.22,373.323 112.733,372.769 111.241,372.364 C109.747,371.963 108.244,371.701 106.661,371.697 C106.097,371.698 105.505,371.731 104.882,371.823 L104.903,371.819 C103.873,371.967 102.903,372.281 102.035,372.694 C100.347,373.503 99.028,374.635 97.889,375.881 C95.771,378.234 94.169,381.094 92.657,384.409 C91.348,387.307 90.153,390.556 89.034,394.055 C87.079,400.174 85.359,407.061 83.856,413.988 C79.359,434.75 76.83,455.897 76.817,455.989 C76.553,458.19 77.655,460.32 79.604,461.378 C79.759,461.461 85.93,464.806 95.01,468.177 C99.551,469.862 104.822,471.555 110.46,472.837 C116.1,474.118 122.107,474.996 128.154,474.998 C134.214,474.996 140.344,474.113 146.085,471.728 C151.411,469.513 155.819,466.807 159.403,463.756 C164.786,459.187 168.261,453.843 170.293,448.556 C172.335,443.264 172.982,438.057 172.983,433.522 C172.982,429.09 172.367,425.279 171.75,422.526 C171.131,419.774 170.505,418.079 170.437,417.894 C170.16,417.155 169.725,416.486 169.163,415.934 L165.38,419.788 L160.323,421.682 L162.875,420.726 L160.316,421.664 L160.323,421.682 L162.875,420.726 L160.316,421.664 C160.316,421.665 160.345,421.742 160.396,421.896 C160.765,422.975 162.192,427.721 162.183,433.522 C162.184,435.858 161.958,438.362 161.375,440.882 C160.495,444.669 158.848,448.471 155.875,452.04 C152.894,455.604 148.544,459 141.936,461.757 C137.875,463.451 133.165,464.2 128.154,464.198 C123.164,464.2 117.906,463.457 112.855,462.306 C105.276,460.585 98.173,457.956 93.017,455.764 C90.437,454.668 88.342,453.683 86.907,452.979 C86.189,452.628 85.636,452.346 85.271,452.157 C85.087,452.062 84.951,451.99 84.864,451.944 L84.771,451.894 L84.752,451.884 L84.451,452.443 L84.753,451.885 L84.752,451.884 L84.451,452.443 L84.753,451.885 L82.179,456.632 L87.54,457.274 C87.54,457.274 87.548,457.208 87.565,457.067 C87.832,454.885 90.25,435.66 94.265,416.957 C95.267,412.284 96.368,407.647 97.551,403.337 C98.438,400.105 99.371,397.056 100.333,394.325 C101.768,390.234 103.313,386.839 104.68,384.745 C105.353,383.697 105.979,382.994 106.353,382.681 C106.538,382.521 106.653,382.457 106.667,382.451 L106.62,382.356 L106.66,382.454 L106.667,382.451 L106.62,382.356 L106.66,382.454 L106.306,381.6 L106.437,382.51 C106.552,382.494 106.635,382.464 106.66,382.454 L106.306,381.6 L106.437,382.51 L106.458,382.507 C106.463,382.506 106.534,382.497 106.661,382.498 C106.981,382.494 107.603,382.565 108.419,382.789 C109.957,383.199 112.142,384.128 114.604,385.477 C118.935,387.835 124.15,391.436 129.417,395.479 C137.333,401.548 145.416,408.617 151.486,414.146 C154.522,416.912 157.059,419.294 158.832,420.981 C159.719,421.824 160.414,422.494 160.886,422.95 C161.122,423.178 161.302,423.353 161.421,423.47 L161.556,423.601 L161.597,423.642 L165.38,419.788 L160.323,421.682 L165.38,419.788" fill="#483930"/>
    <path d="M373.026,301.263 C373.026,301.263 359.653,229.403 364.61,182.47 C369.567,135.55 414.116,38.519 401.243,34.568 C388.376,30.609 256.308,136.977 256.308,136.977 L271.276,310.944 L373.026,301.263" fill="#84BF41"/>
    <path d="M373.026,301.263 L378.335,300.274 C378.335,300.274 378.327,300.233 378.31,300.14 C378.043,298.688 375.686,285.68 373.4,267.753 C371.113,249.831 368.905,226.971 368.908,205.943 C368.907,197.899 369.229,190.128 369.98,183.038 C370.999,173.329 373.904,160.875 377.72,147.478 C383.441,127.359 391.18,105.057 397.517,85.668 C400.686,75.967 403.506,66.995 405.561,59.301 C406.588,55.452 407.425,51.923 408.017,48.743 C408.605,45.557 408.962,42.74 408.967,40.16 C408.967,39.171 408.913,38.212 408.775,37.255 C408.559,35.827 408.185,34.367 407.275,32.88 C406.82,32.144 406.213,31.413 405.447,30.795 C404.685,30.177 403.767,29.69 402.827,29.405 L402.833,29.407 C401.94,29.134 401.14,29.061 400.419,29.059 C399.211,29.065 398.182,29.264 397.146,29.533 C395.159,30.065 393.13,30.915 390.813,32.037 C386.496,34.143 381.254,37.242 375.228,41.105 C364.699,47.858 351.842,56.935 338.423,66.782 C298.188,96.311 252.953,132.746 252.92,132.772 C251.514,133.904 250.772,135.641 250.927,137.44 L265.896,311.407 C266.02,312.844 266.71,314.167 267.818,315.091 C268.926,316.015 270.351,316.456 271.788,316.32 L373.538,306.638 C375.054,306.494 376.421,305.729 377.338,304.513 C378.255,303.296 378.614,301.772 378.335,300.274 L373.026,301.263 L372.515,295.887 L276.189,305.052 L261.688,136.514 L256.308,136.977 L259.695,141.183 C259.695,141.183 259.816,141.085 260.056,140.892 C263.771,137.906 295.606,112.372 328.486,87.631 C344.92,75.264 361.627,63.09 375.132,54.078 C381.877,49.575 387.834,45.859 392.451,43.348 C394.753,42.094 396.725,41.142 398.196,40.559 C398.928,40.267 399.534,40.069 399.945,39.964 C400.149,39.911 400.304,39.881 400.391,39.868 L400.467,39.858 L400.419,39.29 L400.419,39.859 L400.467,39.858 L400.419,39.29 L400.419,39.859 L400.419,37.24 L399.653,39.728 C400.075,39.856 400.325,39.857 400.419,39.859 L400.419,37.24 L399.653,39.728 L399.659,39.73 L400.52,36.925 L398.413,38.971 C398.7,39.28 399.209,39.601 399.659,39.73 L400.52,36.925 L398.413,38.971 L399.929,37.498 L398.028,38.448 C398.074,38.541 398.189,38.741 398.413,38.971 L399.929,37.498 L398.028,38.448 L398.73,38.097 L397.999,38.383 L398.028,38.448 L398.73,38.097 L397.999,38.383 L398.036,38.368 L397.998,38.382 L397.999,38.383 L398.036,38.368 L397.998,38.382 C398.023,38.415 398.177,39.089 398.167,40.16 C398.168,41.175 398.062,42.542 397.831,44.158 C397.402,47.195 396.548,51.106 395.367,55.607 C393.3,63.494 390.238,73.21 386.757,83.824 C381.534,99.754 375.367,117.719 370.151,134.939 C367.543,143.551 365.171,151.979 363.272,159.903 C361.375,167.83 359.945,175.245 359.24,181.902 C358.438,189.487 358.108,197.612 358.107,205.943 C358.11,228.411 360.516,252.413 362.912,270.864 C365.31,289.309 367.705,302.181 367.717,302.25 L373.026,301.263 L372.515,295.887 L373.026,301.263" fill="#483930"/>
    <path d="M66.38,275.436 L281.571,210.749 C281.571,210.749 278.034,224.727 280.663,249.618 C280.663,249.618 296.983,238.614 340.851,263.294 C380.782,285.737 394.991,343.464 350.202,402.491 C315.651,448.019 285.03,452.716 212.151,454.579 C95.208,457.546 66.38,275.436 66.38,275.436" fill="#84BF41"/>
    <path d="M66.38,275.436 L67.934,280.608 L283.125,215.92 L281.571,210.749 L276.336,209.424 C276.24,209.805 274.29,217.683 274.29,231.851 C274.29,237.115 274.559,243.248 275.293,250.186 C275.492,252.07 276.665,253.713 278.382,254.513 C280.099,255.313 282.111,255.154 283.682,254.095 L281.496,250.852 L283.57,254.168 L283.682,254.095 L281.496,250.852 L283.57,254.168 L282.956,253.186 L283.538,254.188 L283.57,254.168 L282.956,253.186 L283.538,254.188 C283.561,254.187 286.229,252.584 292.718,252.573 C296.856,252.573 302.56,253.245 310.072,255.511 C317.583,257.776 326.897,261.639 338.203,268 L338.205,268.001 C348.694,273.9 357.232,282.393 363.185,292.831 C369.132,303.271 372.497,315.666 372.5,329.416 C372.499,350.341 364.676,374.471 345.9,399.227 C337.465,410.342 329.394,418.799 320.997,425.306 C314.694,430.187 308.202,433.988 301.121,437.017 C290.506,441.553 278.512,444.35 263.986,446.129 C249.468,447.909 232.456,448.66 212.013,449.181 C211.117,449.203 210.223,449.214 209.333,449.214 C195.713,449.21 183.483,446.565 172.37,441.931 C162.648,437.875 153.78,432.282 145.678,425.548 C131.503,413.769 119.699,398.47 110.043,382.083 C95.55,357.512 85.911,330.544 79.954,309.775 C76.972,299.39 74.905,290.554 73.587,284.334 C72.928,281.225 72.457,278.769 72.151,277.101 C71.999,276.267 71.887,275.63 71.815,275.206 C71.779,274.994 71.753,274.835 71.736,274.732 L71.718,274.62 L71.714,274.595 L71.713,274.591 L70.113,274.845 L71.713,274.592 L71.713,274.591 L70.113,274.845 L71.713,274.592 L66.38,275.436 L67.934,280.608 L66.38,275.436 L61.046,276.281 C61.068,276.419 62.872,287.787 67.382,304.815 C70.766,317.587 75.67,333.544 82.51,350.351 C87.641,362.955 93.859,376.039 101.362,388.618 C112.618,407.478 126.761,425.241 144.578,438.404 C153.484,444.98 163.314,450.394 174.109,454.154 C184.901,457.916 196.653,460.016 209.333,460.014 C210.31,460.014 211.295,460.002 212.288,459.977 C230.557,459.509 246.254,458.866 260.165,457.428 C270.597,456.348 280.029,454.818 288.764,452.551 C301.861,449.158 313.401,444.059 324.082,436.463 C334.77,428.872 344.561,418.858 354.503,405.755 C374.449,379.477 383.301,353.061 383.3,329.416 C383.302,313.898 379.478,299.602 372.568,287.483 C365.663,275.363 355.676,265.429 343.496,258.586 L343.498,258.587 C331.614,251.902 321.587,247.704 313.192,245.171 C304.798,242.638 298.03,241.772 292.718,241.773 C287.981,241.771 284.407,242.464 281.921,243.24 C279.436,244.015 278.044,244.87 277.644,245.141 L280.663,249.618 L286.033,249.05 C285.339,242.5 285.09,236.748 285.09,231.851 C285.09,225.262 285.543,220.224 285.984,216.879 C286.205,215.206 286.422,213.957 286.579,213.15 C286.657,212.747 286.72,212.454 286.76,212.274 C286.78,212.184 286.794,212.122 286.803,212.089 L286.81,212.06 L284.789,211.563 L286.806,212.074 L286.81,212.06 L284.789,211.563 L286.806,212.074 C287.284,210.187 286.711,208.193 285.304,206.847 C283.898,205.501 281.881,205.017 280.017,205.577 L64.825,270.265 C62.234,271.043 60.623,273.608 61.046,276.281 L66.38,275.436" fill="#483930"/>
    <path d="M138.063,408.77 C129.857,372.608 113.925,363.665 84.837,369.198 C53.97,375.069 32.173,400.157 50.686,440.903 C59.917,461.224 83.642,496.556 88.534,499.944 C105.726,485.938 117.849,457.616 141.593,454.087 C140.876,453.384 140.397,452.976 140.397,452.976 C140.397,452.976 145.889,443.224 138.063,408.77" fill="#84BF41"/>
    <path d="M138.063,408.77 L143.329,407.575 C141.581,399.874 139.474,393.248 136.886,387.562 C134.945,383.3 132.729,379.564 130.174,376.348 C126.354,371.522 121.72,367.89 116.444,365.59 C111.168,363.278 105.345,362.288 99.096,362.29 C94.301,362.291 89.231,362.864 83.826,363.894 C71.477,366.247 60.229,371.486 51.915,379.755 C47.767,383.885 44.378,388.778 42.052,394.347 C39.723,399.913 38.465,406.139 38.468,412.866 C38.469,422.073 40.797,432.195 45.769,443.137 C48.192,448.468 51.474,454.601 55.131,460.928 C60.617,470.412 66.938,480.294 72.399,488.201 C75.133,492.157 77.646,495.612 79.77,498.316 C80.835,499.67 81.8,500.834 82.689,501.815 C83.135,502.307 83.562,502.752 83.999,503.169 C84.44,503.588 84.874,503.974 85.459,504.383 C87.43,505.748 90.086,505.644 91.945,504.13 C96.689,500.259 100.862,495.616 104.875,490.836 C110.878,483.664 116.555,476.16 122.636,470.356 C125.671,467.451 128.787,464.976 132.038,463.114 C135.295,461.249 138.668,459.983 142.386,459.428 C144.413,459.127 146.095,457.705 146.729,455.755 C147.361,453.806 146.837,451.667 145.374,450.232 C144.545,449.419 143.978,448.932 143.902,448.867 L140.397,452.976 L145.103,455.623 C145.377,455.138 146.024,453.806 146.596,451.319 C147.167,448.831 147.668,445.186 147.669,440.023 C147.667,432.664 146.653,422.218 143.329,407.575 L138.063,408.77 L132.797,409.966 C135.983,423.989 136.87,433.662 136.869,440.023 C136.869,444.487 136.434,447.318 136.07,448.899 C135.889,449.69 135.725,450.169 135.641,450.389 L135.595,450.506 L135.583,450.533 L138.062,451.661 L135.691,450.327 C135.614,450.463 135.583,450.533 135.583,450.533 L138.062,451.661 L135.691,450.327 C134.428,452.572 134.933,455.412 136.893,457.083 L138.995,454.619 L136.884,457.076 L136.893,457.083 L138.995,454.619 L136.884,457.076 L136.896,457.086 C136.963,457.145 137.315,457.455 137.811,457.941 L141.593,454.087 L140.799,448.745 C133.875,449.769 127.828,452.63 122.575,456.369 C118.625,459.176 115.084,462.477 111.78,465.971 C106.828,471.213 102.39,476.903 98.044,482.161 C93.708,487.421 89.457,492.236 85.123,495.758 L88.534,499.944 L91.608,495.505 L90.76,496.73 L91.654,495.538 L91.608,495.505 L90.76,496.73 L91.654,495.538 L91.431,495.834 L91.663,495.544 L91.654,495.538 L91.431,495.834 L91.663,495.544 C91.639,495.529 91.363,495.283 91.005,494.902 C90.32,494.18 89.299,492.972 88.107,491.446 C86.012,488.768 83.353,485.09 80.46,480.863 C76.119,474.519 71.237,466.921 66.773,459.427 C62.311,451.938 58.258,444.522 55.602,438.669 C51.137,428.845 49.267,420.238 49.268,412.866 C49.271,407.47 50.259,402.723 52.017,398.512 C54.658,392.207 59.056,387.037 64.86,382.97 C70.656,378.913 77.863,376.019 85.846,374.503 C90.752,373.567 95.17,373.089 99.096,373.09 C103.656,373.091 107.529,373.727 110.876,374.982 C113.391,375.926 115.628,377.214 117.721,378.946 C120.85,381.541 123.684,385.19 126.224,390.288 C128.761,395.378 130.968,401.894 132.797,409.965 L138.063,408.77" fill="#483930"/>
    <path d="M79.95,467.481 C71.478,463.052 62.343,463.839 59.538,469.218 C56.747,474.597 61.331,482.528 69.796,486.936 C78.276,491.352 82.003,487.745 84.802,482.366 C87.614,476.987 88.415,471.876 79.95,467.481" fill="#1A1919"/>
    <path d="M79.95,467.481 L82.452,462.696 C78.037,460.395 73.438,459.218 69.07,459.209 C66.246,459.213 63.492,459.706 60.963,460.89 C59.703,461.483 58.503,462.257 57.436,463.233 C56.369,464.207 55.442,465.389 54.749,466.723 L54.745,466.73 C53.766,468.607 53.315,470.679 53.319,472.676 C53.321,474.694 53.754,476.64 54.471,478.464 C55.553,481.203 57.268,483.701 59.439,485.937 C61.615,488.171 64.263,490.142 67.301,491.726 C68.888,492.551 70.421,493.189 71.944,493.632 C73.464,494.073 74.982,494.316 76.487,494.316 C78.131,494.319 79.756,494.012 81.213,493.429 C82.308,492.994 83.301,492.414 84.172,491.757 C85.482,490.768 86.521,489.621 87.389,488.45 C88.257,487.274 88.962,486.065 89.591,484.861 L89.587,484.867 C90.247,483.603 90.862,482.267 91.337,480.805 C91.809,479.345 92.145,477.742 92.146,476.002 C92.148,474.724 91.956,473.378 91.521,472.065 C90.874,470.088 89.684,468.251 88.136,466.711 C86.584,465.161 84.692,463.86 82.437,462.688 L82.452,462.696 L79.95,467.481 L77.463,472.274 C78.479,472.801 79.25,473.302 79.808,473.74 C80.65,474.403 80.994,474.89 81.151,475.186 C81.301,475.49 81.337,475.643 81.346,476.002 C81.348,476.32 81.279,476.811 81.063,477.476 C80.85,478.137 80.493,478.954 80.016,479.865 L80.012,479.871 C79.609,480.646 79.213,481.313 78.844,481.836 C78.288,482.63 77.812,483.059 77.505,483.248 C77.347,483.346 77.226,483.399 77.083,483.441 C76.938,483.482 76.765,483.515 76.487,483.516 C76.149,483.516 75.65,483.461 74.951,483.259 C74.253,483.057 73.361,482.706 72.29,482.147 C69.555,480.728 67.377,478.853 66,477.046 C65.309,476.145 64.818,475.268 64.521,474.51 C64.221,473.75 64.118,473.122 64.12,472.676 C64.124,472.228 64.201,471.963 64.331,471.705 L64.327,471.712 C64.424,471.529 64.539,471.375 64.728,471.201 C65.006,470.944 65.478,470.644 66.214,470.407 C66.945,470.169 67.923,470.008 69.07,470.01 C71.435,470.001 74.476,470.705 77.448,472.267 L77.463,472.274 L79.95,467.481" fill="#483930"/>
    <path d="M105.515,450.185 C101.55,441.501 93.857,436.509 88.345,439.04 C82.833,441.55 81.567,450.642 85.532,459.325 C89.491,468.009 94.659,467.446 100.171,464.929 C105.698,462.397 109.481,458.868 105.515,450.185" fill="#1A1919"/>
    <path d="M105.515,450.185 L110.427,447.941 C108.47,443.669 105.764,440.088 102.572,437.439 C100.973,436.117 99.244,435.027 97.383,434.242 C95.525,433.46 93.52,432.982 91.427,432.98 C89.645,432.977 87.797,433.343 86.083,434.136 L86.107,434.125 C84.634,434.794 83.327,435.743 82.252,436.856 C80.635,438.531 79.534,440.54 78.834,442.65 C78.135,444.767 77.822,447.006 77.82,449.308 C77.825,453.288 78.757,457.481 80.62,461.569 L80.619,461.565 C81.355,463.179 82.164,464.614 83.084,465.892 C84.457,467.801 86.122,469.376 88.067,470.433 C90.004,471.497 92.156,471.961 94.118,471.951 C95.714,471.95 97.195,471.678 98.564,471.29 C99.934,470.9 101.203,470.392 102.41,469.842 L102.419,469.838 C103.56,469.315 104.706,468.727 105.833,468.006 C106.678,467.466 107.512,466.849 108.306,466.117 C109.494,465.025 110.598,463.648 111.372,461.988 C112.152,460.333 112.562,458.431 112.556,456.505 C112.555,455.115 112.357,453.711 111.995,452.293 C111.633,450.873 111.107,449.435 110.427,447.942 L105.515,450.185 L100.602,452.426 C101.063,453.435 101.357,454.283 101.53,454.962 C101.704,455.643 101.756,456.148 101.755,456.505 C101.752,456.949 101.689,457.162 101.618,457.346 C101.561,457.484 101.488,457.614 101.353,457.787 C101.152,458.041 100.791,458.389 100.21,458.779 C99.634,459.17 98.853,459.594 97.922,460.019 L97.931,460.015 C97.055,460.415 96.266,460.717 95.614,460.901 C94.962,461.087 94.458,461.152 94.118,461.151 C93.832,461.149 93.657,461.115 93.492,461.061 C93.254,460.973 92.963,460.848 92.426,460.289 C91.901,459.734 91.188,458.72 90.445,457.085 L90.444,457.081 C89.183,454.331 88.616,451.562 88.621,449.308 C88.615,447.569 88.96,446.163 89.386,445.303 C89.597,444.869 89.818,444.568 90.015,444.365 C90.215,444.161 90.383,444.046 90.582,443.955 L90.606,443.943 C90.832,443.842 91.061,443.784 91.427,443.781 C91.846,443.779 92.449,443.882 93.193,444.196 C94.306,444.658 95.696,445.605 97.021,447.014 C98.35,448.418 99.617,450.266 100.602,452.427 L105.515,450.185" fill="#483930"/>
    <path d="M136.13,445.966 C131.981,437.366 124.177,432.55 118.72,435.173 C113.257,437.81 112.188,446.915 116.343,455.507 C120.499,464.106 125.632,463.452 131.103,460.802 C136.565,458.179 140.278,454.558 136.13,445.966" fill="#1A1919"/>
    <path d="M136.13,445.966 L140.993,443.619 C138.967,439.431 136.218,435.938 133.014,433.366 C131.408,432.082 129.681,431.027 127.833,430.27 C125.987,429.517 124.006,429.058 121.944,429.057 C120.084,429.053 118.152,429.447 116.372,430.31 C114.958,430.99 113.704,431.931 112.672,433.025 C111.117,434.67 110.057,436.629 109.383,438.681 C108.71,440.739 108.41,442.909 108.409,445.134 C108.415,449.272 109.443,453.632 111.481,457.858 L111.48,457.856 C112.239,459.424 113.062,460.818 113.988,462.058 C115.369,463.912 117.02,465.438 118.936,466.469 C120.844,467.507 122.966,467.97 124.91,467.96 C126.567,467.959 128.1,467.661 129.509,467.238 C130.919,466.812 132.219,466.259 133.454,465.663 L133.44,465.669 C134.554,465.134 135.672,464.534 136.77,463.806 C138.405,462.717 140.038,461.316 141.299,459.37 C141.925,458.403 142.442,457.306 142.787,456.128 C143.133,454.95 143.306,453.699 143.305,452.436 C143.304,450.999 143.088,449.549 142.695,448.089 C142.301,446.627 141.731,445.15 140.993,443.619 L136.13,445.966 L131.266,448.312 C131.765,449.345 132.083,450.21 132.267,450.896 C132.452,451.584 132.505,452.088 132.504,452.436 C132.501,452.849 132.444,453.048 132.374,453.23 C132.318,453.365 132.246,453.498 132.111,453.673 C131.912,453.932 131.554,454.282 130.989,454.677 C130.427,455.072 129.667,455.501 128.765,455.934 L128.751,455.94 C127.856,456.374 127.054,456.7 126.397,456.896 C125.739,457.095 125.24,457.162 124.91,457.16 C124.646,457.159 124.482,457.127 124.32,457.075 C124.085,456.989 123.781,456.856 123.233,456.299 C122.696,455.747 121.972,454.749 121.205,453.157 L121.204,453.155 C119.823,450.313 119.203,447.436 119.209,445.134 C119.204,443.484 119.527,442.157 119.926,441.342 C120.124,440.931 120.331,440.644 120.518,440.446 C120.708,440.247 120.873,440.131 121.066,440.036 C121.3,439.927 121.543,439.86 121.944,439.857 C122.377,439.855 122.994,439.959 123.747,440.268 C124.874,440.723 126.272,441.647 127.613,443.021 C128.957,444.392 130.246,446.195 131.266,448.312 L136.13,445.966" fill="#483930"/>
    <path d="M86.433,468.796 C74.853,483.513 69.171,492.667 79.226,499.03 C104.313,514.921 134.217,494.39 139.673,485.306 C148.8,470.026 142.353,457.054 140.257,453.56 C125.442,450.079 97.303,454.966 86.433,468.796" fill="#0D5D35"/>
    <path d="M86.433,468.796 L82.188,465.456 C78.438,470.229 75.222,474.493 72.807,478.547 C71.601,480.579 70.591,482.565 69.848,484.6 C69.109,486.631 68.627,488.735 68.625,490.943 C68.624,492.18 68.783,493.444 69.13,494.675 C69.647,496.525 70.597,498.269 71.844,499.754 C73.091,501.247 74.611,502.499 76.337,503.593 C80.097,505.975 83.998,507.659 87.909,508.734 C91.821,509.811 95.739,510.28 99.557,510.28 C104.883,510.279 110.013,509.372 114.773,507.929 C121.917,505.759 128.239,502.398 133.286,498.854 C135.811,497.079 138.015,495.257 139.858,493.465 C141.702,491.662 143.184,489.931 144.301,488.087 L144.309,488.074 C148.379,481.281 149.838,474.602 149.826,468.883 C149.825,464.416 148.972,460.538 147.938,457.466 C146.901,454.391 145.683,452.11 144.888,450.782 C144.135,449.527 142.917,448.637 141.492,448.303 C137.903,447.462 133.903,447.081 129.643,447.078 C121.466,447.085 112.333,448.496 103.851,451.417 C99.612,452.882 95.537,454.73 91.842,457.034 C88.151,459.339 84.826,462.104 82.187,465.459 L82.188,465.456 L86.433,468.796 L90.678,472.132 C92.351,469.999 94.697,467.98 97.559,466.197 C101.845,463.516 107.265,461.391 112.92,459.987 C118.572,458.576 124.46,457.875 129.643,457.878 C133.235,457.875 136.491,458.218 139.021,458.816 L140.257,453.56 L135.625,456.336 C136.106,457.136 136.973,458.744 137.702,460.913 C138.434,463.083 139.027,465.803 139.026,468.883 C139.014,472.838 138.096,477.393 135.037,482.537 L135.044,482.524 C134.785,482.96 134.273,483.658 133.555,484.453 C132.296,485.854 130.413,487.57 128.095,489.283 C124.617,491.861 120.153,494.453 115.229,496.355 C110.302,498.264 104.925,499.483 99.557,499.48 C96.621,499.48 93.684,499.121 90.773,498.321 C87.863,497.519 84.975,496.278 82.115,494.468 C80.789,493.629 80.14,492.913 79.833,492.423 C79.676,492.172 79.589,491.968 79.526,491.746 C79.464,491.524 79.425,491.277 79.425,490.943 C79.422,490.356 79.565,489.473 79.995,488.299 C80.628,486.541 81.902,484.199 83.735,481.476 C85.563,478.747 87.931,475.623 90.676,472.135 L90.678,472.132 L86.433,468.796" fill="#483930"/>
    <path d="M100.319,481.474 C94.153,489.313 90.11,495.149 90.44,499.698 C109.487,507.841 130.413,493.229 134.478,486.466 C138.604,479.554 138.731,473.226 137.782,468.515 C125.442,467.763 107.8,471.981 100.319,481.474" fill="#483930"/>
    <path d="M170.913,53.692 C170.913,53.692 232.514,-3.12 268.401,15.478 C286.112,24.654 256.194,90.233 256.194,90.233 L170.913,53.692" fill="#ED9F2D"/>
    <path d="M170.913,53.692 L174.574,57.662 L173.459,56.454 L174.573,57.663 L174.574,57.662 L173.459,56.454 L174.573,57.663 C174.615,57.62 185.859,47.287 201.27,37.096 C208.969,32 217.708,26.945 226.515,23.22 C235.319,19.483 244.178,17.124 251.975,17.138 C257.11,17.142 261.752,18.117 265.917,20.272 C266.266,20.457 266.524,20.663 266.813,21.01 C267.238,21.519 267.715,22.419 268.06,23.808 C268.408,25.188 268.608,27.013 268.606,29.138 C268.607,31.531 268.36,34.301 267.903,37.276 C267.106,42.486 265.673,48.322 263.961,54.091 C261.396,62.75 258.212,71.27 255.677,77.592 C254.409,80.754 253.304,83.369 252.518,85.185 C252.125,86.094 251.813,86.802 251.601,87.281 C251.494,87.52 251.413,87.701 251.358,87.821 L251.298,87.954 L251.281,87.992 L256.194,90.233 L258.321,85.27 L173.04,48.729 L170.913,53.692 L174.574,57.662 L170.913,53.692 L168.786,58.656 L254.067,95.197 C256.763,96.352 259.89,95.143 261.107,92.474 C261.147,92.384 265.651,82.513 270.188,69.764 C272.456,63.386 274.734,56.289 276.465,49.281 C278.191,42.262 279.396,35.366 279.406,29.138 C279.397,25.446 278.994,21.957 277.763,18.714 C277.144,17.097 276.299,15.54 275.153,14.147 C274.013,12.755 272.559,11.546 270.885,10.683 C264.952,7.605 258.482,6.334 251.975,6.338 C242.016,6.352 231.888,9.218 222.192,13.322 C207.66,19.5 194.041,28.562 183.95,36.092 C173.87,43.623 167.35,49.634 167.252,49.723 C165.911,50.959 165.282,52.809 165.591,54.606 C165.899,56.403 167.11,57.937 168.786,58.656 L170.913,53.692" fill="#483930"/>
    <path d="M269.062,120.257 C269.062,120.257 335.22,122.788 332.702,153.395 C330.171,184.017 269.428,202.065 269.428,202.065 L269.062,120.257" fill="#ED9F2D"/>
    <path d="M269.062,120.257 L268.855,125.653 L268.881,125.654 C269.259,125.669 273.353,125.853 279.231,126.552 C283.639,127.077 289.051,127.892 294.634,129.131 C298.82,130.059 303.102,131.226 307.111,132.665 C310.118,133.744 312.97,134.976 315.508,136.352 C319.325,138.412 322.395,140.803 324.372,143.332 C325.366,144.6 326.102,145.895 326.602,147.258 C327.099,148.624 327.37,150.066 327.372,151.71 C327.372,152.106 327.354,152.523 327.319,152.963 L327.32,152.95 C327.074,155.909 326.131,158.781 324.537,161.655 C323.143,164.164 321.246,166.652 318.952,169.058 C314.941,173.271 309.722,177.208 304.147,180.658 C295.785,185.843 286.648,189.945 279.648,192.71 C276.148,194.094 273.179,195.147 271.101,195.85 C270.062,196.202 269.245,196.466 268.695,196.639 C268.42,196.726 268.211,196.791 268.075,196.832 L267.926,196.878 L267.894,196.888 L267.89,196.889 L269.428,202.065 L274.828,202.041 L274.461,120.232 L269.062,120.257 L268.855,125.653 L269.062,120.257 L263.661,120.281 L264.027,202.09 C264.035,203.786 264.847,205.39 266.208,206.401 C267.57,207.412 269.339,207.725 270.965,207.242 C271.063,207.212 274.977,206.047 280.87,203.817 C289.714,200.461 302.99,194.756 314.646,186.689 C320.473,182.644 325.915,178.004 330.171,172.591 C332.295,169.883 334.12,166.975 335.497,163.844 C336.873,160.717 337.793,157.36 338.083,153.84 L338.084,153.827 C338.141,153.123 338.172,152.418 338.172,151.71 C338.173,149.402 337.852,147.172 337.243,145.073 C336.104,141.128 333.965,137.698 331.298,134.83 C328.961,132.313 326.219,130.192 323.249,128.356 C318.047,125.151 312.127,122.798 306.142,120.975 C297.168,118.252 288.03,116.749 281.079,115.897 C274.13,115.049 269.378,114.865 269.268,114.861 C267.805,114.805 266.36,115.357 265.308,116.374 C264.256,117.391 263.654,118.818 263.661,120.281 L269.062,120.257" fill="#483930"/>
    <path d="M239.425,77.507 C239.425,77.507 312.698,46.626 325.517,81.233 C338.319,115.849 281.396,166.347 281.396,166.347 L239.425,77.507" fill="#ED9F2D"/>
    <path d="M239.425,77.507 L241.522,82.483 L241.532,82.478 C241.865,82.338 249.324,79.234 259.626,76.195 C264.775,74.675 270.634,73.173 276.643,72.059 C282.649,70.943 288.809,70.221 294.511,70.223 C297.755,70.222 300.849,70.455 303.673,70.956 C307.918,71.706 311.512,73.057 314.273,74.999 C315.659,75.973 316.853,77.093 317.879,78.415 C318.905,79.738 319.769,81.268 320.453,83.109 L320.452,83.106 C321.501,85.947 321.99,88.948 321.991,92.149 C321.993,95.701 321.375,99.493 320.231,103.412 C318.236,110.271 314.618,117.488 310.26,124.366 C303.729,134.693 295.569,144.256 289.066,151.173 C285.815,154.633 282.979,157.437 280.967,159.366 C279.961,160.33 279.161,161.075 278.618,161.574 C278.346,161.824 278.139,162.012 278.003,162.135 L277.852,162.271 L277.817,162.302 L277.812,162.307 L281.396,166.347 L286.278,164.04 L244.307,75.2 L239.425,77.507 L241.522,82.483 L239.425,77.507 L234.542,79.813 L276.513,168.653 C277.237,170.187 278.651,171.297 280.313,171.637 C281.974,171.977 283.71,171.511 284.979,170.386 C285.118,170.258 296.794,159.906 308.61,145.143 C314.518,137.753 320.468,129.261 325.022,120.268 C327.298,115.769 329.226,111.141 330.599,106.436 C331.97,101.733 332.79,96.945 332.792,92.149 C332.793,87.839 332.12,83.518 330.581,79.36 L330.58,79.357 C329.191,75.597 327.141,72.343 324.601,69.693 C322.698,67.703 320.533,66.053 318.209,64.717 C314.719,62.71 310.886,61.399 306.895,60.578 C302.9,59.757 298.736,59.424 294.511,59.423 C287.808,59.425 280.938,60.265 274.364,61.497 C264.508,63.349 255.313,66.092 248.539,68.377 C241.766,70.662 237.42,72.492 237.327,72.53 C235.979,73.099 234.903,74.211 234.381,75.578 C233.858,76.945 233.917,78.49 234.542,79.813 L239.425,77.507" fill="#483930"/>
    <path d="M256.435,196.567 C256.435,196.567 297.335,191.399 308.726,214.286 C320.123,237.186 256.308,260.565 256.308,260.565 L256.435,196.567" fill="#ED9F2D"/>
    <path d="M256.435,196.567 L257.112,201.925 L256.918,200.394 L257.108,201.925 L257.112,201.925 L256.918,200.394 L257.108,201.925 C257.184,201.915 260.874,201.466 266.19,201.467 C272.261,201.457 280.466,202.077 287.677,204.405 C291.286,205.561 294.629,207.131 297.39,209.149 C300.157,211.176 302.349,213.605 303.891,216.692 C304.472,217.874 304.681,218.869 304.688,219.915 C304.687,220.644 304.573,221.41 304.317,222.252 C303.845,223.824 302.834,225.667 301.278,227.614 C298.571,231.033 294.248,234.678 289.299,238.02 C281.876,243.057 273.09,247.481 266.216,250.59 C262.777,252.147 259.813,253.383 257.72,254.223 C256.673,254.644 255.845,254.966 255.283,255.181 C255.002,255.288 254.789,255.369 254.647,255.421 L254.492,255.479 L254.456,255.492 L254.45,255.495 L256.308,260.565 L261.708,260.576 L261.834,196.578 L256.435,196.567 L257.112,201.925 L256.435,196.567 L251.034,196.557 L250.907,260.555 C250.903,262.324 251.761,263.974 253.21,264.989 C254.66,266.004 256.503,266.244 258.165,265.636 C258.238,265.609 261.687,264.344 266.849,262.118 C270.721,260.448 275.557,258.237 280.665,255.592 C288.331,251.614 296.597,246.705 303.249,240.969 C306.574,238.09 309.513,235 311.739,231.545 C312.849,229.817 313.778,227.99 314.44,226.046 C315.101,224.105 315.488,222.04 315.488,219.915 C315.494,217.218 314.847,214.452 313.56,211.88 C311.177,207.083 307.695,203.293 303.757,200.426 C300.8,198.269 297.586,196.605 294.294,195.305 C289.354,193.357 284.231,192.217 279.392,191.542 C274.553,190.869 269.994,190.667 266.19,190.667 C260.083,190.668 255.921,191.19 255.757,191.21 C253.057,191.551 251.04,193.835 251.034,196.557 L256.435,196.567" fill="#483930"/>
    <path d="M280.663,249.618 C280.663,249.618 307.987,254.716 313.654,268.054 C321.171,285.759 291.745,301.263 291.745,301.263 C291.745,301.263 273.815,281.048 280.663,249.618" fill="#ED9F2D"/>
    <path d="M280.663,249.618 L279.672,254.926 L279.674,254.927 C279.888,254.962 286.488,256.25 293.399,258.994 C296.85,260.356 300.369,262.089 303.142,264.062 C304.53,265.045 305.728,266.082 306.662,267.117 C307.599,268.154 308.266,269.178 308.684,270.165 C309.256,271.522 309.479,272.738 309.482,273.965 C309.481,275.161 309.256,276.381 308.8,277.665 C308.011,279.906 306.468,282.317 304.485,284.59 C301.522,288.008 297.636,291.074 294.527,293.2 C292.974,294.267 291.614,295.107 290.661,295.67 C290.185,295.952 289.81,296.165 289.562,296.302 C289.438,296.371 289.346,296.421 289.29,296.452 L289.231,296.483 L289.222,296.488 L290.273,298.47 L289.228,296.485 L289.222,296.488 L290.273,298.47 L289.228,296.485 L291.745,301.263 L295.785,297.679 L293.428,299.769 L295.798,297.695 L295.785,297.679 L293.428,299.769 L295.798,297.695 L295.774,297.666 C295.475,297.319 292.614,293.881 289.875,288.03 C287.129,282.171 284.504,273.939 284.504,263.834 C284.504,259.782 284.924,255.424 285.939,250.768 L280.663,249.618 L279.672,254.926 L280.663,249.618 L275.387,248.468 C274.204,253.89 273.704,259.034 273.704,263.834 C273.704,276.415 277.136,286.588 280.574,293.612 C284.017,300.644 287.466,304.573 287.705,304.846 C289.36,306.712 292.055,307.202 294.262,306.04 C294.47,305.923 300.521,302.748 306.819,297.386 C309.967,294.693 313.195,291.451 315.766,287.589 C317.048,285.657 318.165,283.561 318.976,281.284 C319.785,279.01 320.283,276.545 320.282,273.965 C320.286,271.331 319.754,268.594 318.625,265.944 C317.632,263.61 316.221,261.574 314.602,259.796 C311.758,256.686 308.285,254.308 304.705,252.35 C299.332,249.43 293.659,247.474 289.267,246.191 C284.879,244.914 281.78,244.334 281.653,244.31 C278.786,243.775 276.008,245.618 275.387,248.468 L280.663,249.618" fill="#483930"/>
    <path d="M287.148,304.097 C287.434,304.541 294.344,315.681 309.464,325.205 C311.989,326.792 315.322,326.033 316.91,323.508 C318.498,320.983 317.738,317.65 315.213,316.062 C308.648,311.936 303.859,307.428 300.746,303.991 C299.19,302.274 298.053,300.827 297.323,299.836 C296.958,299.341 296.695,298.961 296.532,298.718 C296.451,298.597 296.394,298.51 296.362,298.46 L296.333,298.415 L296.333,298.414 L293.255,300.331 L296.341,298.428 L296.333,298.414 L293.255,300.331 L296.341,298.428 C294.775,295.89 291.449,295.101 288.911,296.666 C286.372,298.232 285.583,301.559 287.149,304.097" fill="#483930"/>
    <path d="M204.825,336.278 C204.825,336.278 217.382,322.954 238.399,322.497 C261.054,323.763 265.435,326.94 275.376,337.017 C300.323,362.624 259.415,379.38 228.499,358.511 L204.825,336.278" fill="#84BF41"/>
    <path d="M204.825,336.278 L208.755,339.981 L206.327,337.693 L208.74,339.997 L208.755,339.981 L206.327,337.693 L208.74,339.997 L208.743,339.995 C208.859,339.87 211.8,336.873 216.954,333.932 C222.119,330.982 229.431,328.093 238.517,327.895 L238.399,322.497 L238.098,327.888 C243.646,328.197 247.987,328.623 251.437,329.207 C254.027,329.644 256.109,330.165 257.867,330.775 C260.504,331.698 262.438,332.78 264.516,334.345 C266.584,335.907 268.778,338.014 271.532,340.809 L271.508,340.785 C273.897,343.235 275.475,345.474 276.418,347.379 C277.364,349.292 277.686,350.843 277.688,352.103 C277.677,353.469 277.34,354.565 276.625,355.706 C276.084,356.553 275.301,357.408 274.236,358.222 C272.644,359.443 270.414,360.547 267.699,361.316 C264.986,362.088 261.8,362.531 258.349,362.53 C250.07,362.536 240.328,359.99 231.52,354.035 L228.499,358.511 L232.195,354.574 L208.521,332.342 L204.825,336.278 L208.755,339.981 L204.825,336.278 L201.128,340.214 L224.802,362.447 C225.034,362.665 225.213,362.808 225.478,362.986 C236.167,370.192 247.912,373.324 258.349,373.33 C262.228,373.329 265.937,372.895 269.376,372.043 C274.525,370.758 279.113,368.56 282.64,365.233 C284.395,363.57 285.871,361.608 286.899,359.377 C287.93,357.151 288.491,354.662 288.488,352.103 C288.489,348.943 287.654,345.72 286.093,342.58 C284.53,339.433 282.252,336.338 279.244,333.248 L279.22,333.224 C276.695,330.668 274.428,328.438 271.969,326.462 C270.127,324.984 268.173,323.661 266.009,322.54 C262.759,320.853 259.099,319.662 254.725,318.826 C250.34,317.987 245.202,317.47 238.7,317.105 L238.282,317.098 C232.468,317.224 227.222,318.243 222.651,319.697 C215.79,321.879 210.443,325.022 206.77,327.643 C203.095,330.266 201.085,332.374 200.895,332.575 C199.905,333.624 199.383,335.001 199.427,336.443 C199.472,337.885 200.077,339.227 201.128,340.214 L204.825,336.278" fill="#483930"/>
    <path d="M170.076,347.436 C170.076,347.436 154.692,371.892 163.938,377.13 C173.22,382.368 192.772,365.542 192.772,365.542 L170.076,347.436" fill="#1A1919"/>
    <path d="M170.076,347.436 L165.505,344.561 C165.437,344.672 163.076,348.422 160.658,353.466 C159.449,355.993 158.223,358.842 157.264,361.794 C156.786,363.272 156.373,364.777 156.072,366.302 C155.773,367.828 155.581,369.374 155.58,370.959 C155.584,372.855 155.85,374.848 156.732,376.826 C157.173,377.808 157.776,378.774 158.548,379.636 C159.317,380.499 160.25,381.248 161.277,381.828 L161.285,381.833 C162.392,382.458 163.562,382.891 164.725,383.16 C165.889,383.429 167.045,383.539 168.174,383.54 C169.988,383.538 171.733,383.259 173.421,382.831 C176.373,382.075 179.179,380.856 181.815,379.485 C185.76,377.424 189.312,374.997 191.932,373.066 C194.548,371.135 196.218,369.7 196.294,369.635 C197.508,368.591 198.201,367.043 198.171,365.441 C198.142,363.84 197.392,362.319 196.14,361.32 L173.443,343.215 C172.237,342.252 170.694,341.854 169.173,342.112 C167.651,342.37 166.327,343.254 165.505,344.561 L170.076,347.436 L166.708,351.658 L189.405,369.763 L192.772,365.542 L189.25,361.448 C189.149,361.538 185.597,364.557 181.075,367.434 C178.82,368.872 176.322,370.27 173.991,371.25 C172.827,371.741 171.708,372.127 170.709,372.377 C169.711,372.629 168.837,372.741 168.174,372.739 C167.752,372.74 167.417,372.697 167.163,372.638 C166.908,372.579 166.735,372.506 166.591,372.426 L166.6,372.431 L166.58,372.419 L166.579,372.418 L166.478,372.544 L166.61,372.452 L166.579,372.418 L166.478,372.544 L166.61,372.452 L166.581,372.393 C166.516,372.263 166.376,371.776 166.38,370.959 C166.378,370.277 166.471,369.389 166.669,368.389 C167.011,366.636 167.672,364.555 168.49,362.483 C169.714,359.37 171.276,356.269 172.521,353.991 C173.143,352.851 173.686,351.913 174.067,351.269 C174.258,350.947 174.408,350.699 174.508,350.536 L174.619,350.356 L174.644,350.316 L174.648,350.31 L173.123,349.353 L174.646,350.311 L174.648,350.31 L173.123,349.353 L174.646,350.311 L170.076,347.436 L166.708,351.658 L170.076,347.436" fill="#483930"/>
    <path d="M189.476,363.116 C189.476,363.116 184.765,391.628 195.333,392.858 C205.894,394.11 217.396,370.991 217.396,370.991 L189.476,363.116" fill="#1A1919"/>
    <path d="M189.476,363.116 L184.147,362.235 C184.135,362.312 183.859,363.99 183.583,366.559 C183.308,369.13 183.029,372.588 183.028,376.275 C183.029,378.344 183.116,380.487 183.355,382.611 C183.537,384.206 183.802,385.791 184.205,387.345 C184.508,388.511 184.887,389.66 185.389,390.785 C186.143,392.463 187.176,394.126 188.741,395.532 C189.52,396.229 190.433,396.849 191.45,397.314 C192.465,397.782 193.578,398.091 194.708,398.222 L194.702,398.221 C195.204,398.28 195.695,398.306 196.169,398.306 C198.424,398.305 200.499,397.71 202.326,396.859 C203.93,396.109 205.376,395.157 206.721,394.098 C209.068,392.239 211.124,390.041 212.97,387.782 C215.729,384.394 217.998,380.855 219.617,378.125 C221.233,375.398 222.187,373.484 222.231,373.396 C222.944,371.962 222.982,370.268 222.333,368.803 C221.685,367.339 220.403,366.228 218.862,365.794 L190.941,357.919 C189.456,357.5 187.882,357.73 186.58,358.558 C185.277,359.386 184.399,360.712 184.147,362.235 L189.476,363.116 L188.009,368.313 L215.93,376.188 L217.396,370.991 L212.562,368.585 L212.561,368.586 C212.517,368.675 211.832,370.035 210.692,371.996 C208.993,374.933 206.228,379.239 203.247,382.54 C201.768,384.189 200.234,385.573 198.928,386.415 C198.278,386.838 197.692,387.127 197.225,387.292 C196.753,387.459 196.413,387.506 196.169,387.506 L195.963,387.495 L195.958,387.495 L195.933,387.491 L195.928,387.51 L195.935,387.491 L195.933,387.491 L195.928,387.51 L195.935,387.491 L195.88,387.668 L195.965,387.504 L195.935,387.491 L195.88,387.668 L195.965,387.504 L195.912,387.607 L195.973,387.508 L195.965,387.504 L195.912,387.607 L195.973,387.508 L195.949,387.489 C195.883,387.438 195.627,387.17 195.341,386.575 C194.904,385.697 194.464,384.159 194.207,382.33 C193.941,380.499 193.827,378.383 193.829,376.275 C193.828,373.136 194.073,370.015 194.321,367.712 C194.445,366.561 194.568,365.612 194.66,364.961 C194.705,364.636 194.743,364.385 194.768,364.221 L194.796,364.04 L194.802,364 L194.804,363.994 L192.84,363.672 L194.803,363.997 L194.804,363.994 L192.84,363.672 L194.803,363.997 L189.476,363.116 L188.009,368.313 L189.476,363.116" fill="#483930"/>
    <path d="M217.382,372.208 C217.382,372.208 221.173,400.839 231.628,398.962 C242.104,397.063 246.394,371.61 246.394,371.61 L217.382,372.208" fill="#1A1919"/>
    <path d="M217.382,372.208 L212.028,372.916 C212.039,372.996 212.275,374.77 212.786,377.424 C213.17,379.414 213.708,381.898 214.432,384.548 C214.975,386.537 215.622,388.618 216.402,390.668 C217.585,393.747 219.008,396.755 221.104,399.368 C222.16,400.668 223.41,401.888 225.002,402.848 C225.797,403.325 226.68,403.73 227.635,404.012 C228.589,404.295 229.614,404.451 230.652,404.45 C231.301,404.45 231.943,404.389 232.563,404.28 L232.59,404.275 C234.923,403.854 236.95,402.79 238.601,401.492 C240.054,400.351 241.261,399.025 242.32,397.615 C244.166,395.143 245.581,392.39 246.762,389.62 C248.522,385.468 249.729,381.262 250.529,378.043 C251.326,374.827 251.701,372.607 251.718,372.507 C251.984,370.928 251.527,369.293 250.48,368.081 C249.434,366.869 247.883,366.178 246.282,366.211 L217.271,366.809 C215.728,366.841 214.289,367.519 213.284,368.691 C212.279,369.862 211.826,371.386 212.028,372.916 L217.382,372.208 L217.493,377.606 L246.504,377.009 L246.394,371.61 L241.068,370.713 L241.068,370.715 C241.05,370.82 240.775,372.402 240.225,374.71 C239.813,376.44 239.246,378.579 238.525,380.795 C237.456,384.116 236,387.628 234.405,390.087 C233.618,391.317 232.804,392.268 232.13,392.835 C231.794,393.121 231.497,393.314 231.256,393.437 C231.013,393.561 230.83,393.618 230.665,393.648 L230.692,393.644 L230.649,393.649 L230.652,393.677 L230.652,393.649 L230.649,393.649 L230.652,393.677 L230.652,393.649 L230.652,393.843 L230.685,393.653 L230.652,393.649 L230.652,393.843 L230.685,393.653 L230.663,393.779 L230.695,393.655 L230.685,393.653 L230.663,393.779 L230.695,393.655 L230.669,393.644 C230.589,393.616 230.233,393.412 229.748,392.867 C229.326,392.397 228.825,391.695 228.33,390.824 C227.457,389.298 226.607,387.27 225.889,385.13 C224.803,381.915 223.995,378.445 223.478,375.824 C223.218,374.512 223.029,373.409 222.907,372.645 C222.846,372.264 222.802,371.966 222.773,371.77 C222.759,371.672 222.749,371.599 222.742,371.553 L222.736,371.505 L222.734,371.497 L221.031,371.725 L222.735,371.499 L222.734,371.497 L221.031,371.725 L222.735,371.499 L217.382,372.208 L217.493,377.606 L217.382,372.208" fill="#483930"/>
    <path d="M171.229,341.306 C167.397,352.007 181.952,366.983 203.728,374.774 C225.497,382.579 246.253,380.224 250.085,369.515 C253.931,358.827 244.903,332.306 223.12,324.515 C201.345,316.71 175.062,330.597 171.229,341.306" fill="#84BF41"/>
    <path d="M171.229,341.306 L166.146,339.484 C165.515,341.239 165.215,343.08 165.216,344.898 C165.216,346.781 165.531,348.636 166.081,350.425 C167.048,353.56 168.714,356.503 170.872,359.3 C174.118,363.489 178.499,367.375 183.751,370.869 C189.004,374.356 195.138,377.435 201.908,379.858 L201.905,379.857 C211.115,383.154 220.173,384.772 228.245,384.778 C234.347,384.768 239.902,383.868 244.63,381.807 C246.99,380.771 249.151,379.426 250.982,377.685 C252.811,375.951 254.292,373.793 255.168,371.335 L255.166,371.342 C256.015,368.962 256.34,366.435 256.346,363.775 C256.341,359.992 255.658,355.914 254.361,351.717 C252.408,345.433 249.06,338.881 244.199,333.089 C239.345,327.31 232.922,322.285 224.938,319.43 L224.942,319.431 C219.85,317.606 214.602,316.834 209.48,316.834 C204.471,316.835 199.576,317.568 194.978,318.798 C188.08,320.652 181.852,323.605 176.852,327.1 C174.352,328.853 172.155,330.743 170.332,332.778 C168.517,334.818 167.045,336.997 166.145,339.487 L166.146,339.484 L171.229,341.306 L176.314,343.123 C176.48,342.653 176.826,341.977 177.388,341.204 C178.366,339.844 179.993,338.209 182.11,336.625 C185.286,334.236 189.548,331.943 194.301,330.297 C199.055,328.644 204.299,327.631 209.48,327.634 C213.521,327.634 217.519,328.243 221.298,329.598 L221.301,329.599 C225.247,331.011 228.717,333.144 231.744,335.77 C236.279,339.7 239.789,344.765 242.114,349.867 C243.277,352.414 244.145,354.964 244.712,357.346 C245.282,359.727 245.547,361.941 245.545,363.775 C245.551,365.495 245.304,366.872 245.003,367.686 L245.001,367.694 C244.723,368.457 244.285,369.143 243.536,369.862 C242.425,370.932 240.539,372.012 237.913,372.771 C235.296,373.537 231.989,373.98 228.245,373.977 C221.632,373.983 213.675,372.609 205.55,369.691 L205.546,369.69 C196.434,366.438 188.714,361.814 183.519,357.078 C180.918,354.718 178.959,352.336 177.73,350.206 C177.114,349.143 176.678,348.145 176.404,347.254 C176.13,346.36 176.017,345.577 176.017,344.898 C176.018,344.241 176.117,343.677 176.313,343.127 L176.314,343.123 L171.229,341.306" fill="#483930"/>
    <path d="M366.501,376.089 C366.501,376.089 302.854,334.134 287.99,370.099 C273.134,406.042 319.181,451.675 319.181,451.675 C319.181,451.675 370.874,441.585 366.501,376.089" fill="#84BF41"/>
    <path d="M366.501,376.089 L369.473,371.58 C369.337,371.493 361.373,366.242 350.257,360.936 C344.695,358.284 338.344,355.615 331.729,353.581 C325.111,351.554 318.234,350.138 311.505,350.131 C308.622,350.131 305.761,350.396 302.973,351.02 C298.797,351.95 294.758,353.721 291.282,356.565 C287.802,359.4 284.959,363.271 282.999,368.036 C280.638,373.744 279.634,379.661 279.637,385.489 C279.644,394.533 281.998,403.366 285.383,411.546 C290.478,423.813 297.937,434.689 304.128,442.595 C310.322,450.492 315.265,455.395 315.379,455.51 C316.649,456.769 318.46,457.317 320.215,456.975 C320.477,456.922 323.767,456.264 328.623,454.321 C332.263,452.862 336.786,450.68 341.552,447.468 C348.696,442.657 356.406,435.488 362.289,425.079 C368.181,414.676 372.172,401.088 372.163,383.791 C372.163,381.188 372.073,378.502 371.889,375.73 C371.776,374.038 370.889,372.513 369.473,371.58 L366.501,376.089 L361.113,376.447 C361.282,378.989 361.363,381.437 361.363,383.791 C361.357,397.713 358.556,408.405 354.479,416.744 C351.415,422.997 347.616,427.943 343.616,431.892 C337.623,437.811 331.146,441.473 326.196,443.63 C323.723,444.709 321.638,445.411 320.206,445.834 C319.491,446.046 318.939,446.188 318.584,446.274 C318.407,446.317 318.279,446.346 318.205,446.362 L318.133,446.377 L318.129,446.378 L318.554,448.496 L318.135,446.377 L318.129,446.378 L318.554,448.496 L318.135,446.377 L318.921,450.35 L318.14,446.376 L318.135,446.377 L318.921,450.35 L318.14,446.376 L318.139,446.376 L319.181,451.674 L318.146,446.374 L318.139,446.376 L319.181,451.674 L318.146,446.374 L319.181,451.675 L322.981,447.839 L322.438,448.387 L322.982,447.84 L322.981,447.839 L322.438,448.387 L322.982,447.84 C322.874,447.737 314.539,439.411 306.375,427.385 C302.292,421.377 298.257,414.448 295.29,407.24 C292.314,400.03 290.43,392.564 290.437,385.489 C290.439,380.881 291.214,376.438 292.98,372.162 C293.899,369.942 294.987,368.201 296.197,366.799 C298.017,364.704 300.115,363.312 302.652,362.351 C305.184,361.398 308.173,360.93 311.505,360.931 C316.682,360.924 322.631,362.078 328.557,363.905 C337.456,366.635 346.29,370.833 352.826,374.343 C356.096,376.097 358.797,377.677 360.668,378.81 C361.603,379.376 362.331,379.831 362.818,380.141 C363.062,380.295 363.246,380.414 363.366,380.491 L363.497,380.576 L363.525,380.595 L363.53,380.598 L364.272,379.47 L363.529,380.597 L363.53,380.598 L364.272,379.47 L363.529,380.597 L366.501,376.089 L361.113,376.447 L366.501,376.089" fill="#483930"/>
    <path d="M324.005,460.45 C324.005,460.45 333.546,454.593 343.495,420.702 C353.958,385.145 344.401,369.55 316.306,360.22 C286.485,350.306 255.218,361.591 251.548,406.183 C247.862,450.796 260.237,449.811 260.237,449.811 C260.237,449.811 248.489,464.599 253.298,485.2 C258.101,505.802 312.993,514.042 319.757,504.198 C333.089,484.813 324.005,460.45 324.005,460.45" fill="#84BF41"/>
    <path d="M324.005,460.45 L326.83,465.052 C327.65,464.55 330.601,462.431 334.574,456.185 C338.552,449.931 343.592,439.534 348.676,422.223 L348.675,422.226 C351.53,412.51 353.018,404.046 353.022,396.471 C353.023,391.193 352.286,386.337 350.732,381.915 C349.569,378.602 347.946,375.545 345.904,372.79 C342.84,368.65 338.864,365.214 334.186,362.34 C329.5,359.463 324.104,357.121 318.007,355.095 C310.957,352.751 303.765,351.484 296.722,351.482 C290.482,351.482 284.353,352.482 278.608,354.639 C274.301,356.254 270.216,358.523 266.504,361.47 C260.931,365.889 256.224,371.83 252.753,379.217 C249.277,386.607 247.014,395.428 246.166,405.74 C245.677,411.647 245.461,416.809 245.461,421.332 C245.463,428.558 246.008,434.156 246.909,438.588 C247.586,441.912 248.464,444.585 249.504,446.778 C250.284,448.421 251.159,449.794 252.108,450.929 C253.524,452.633 255.136,453.779 256.613,454.419 C258.089,455.068 259.381,455.213 260.172,455.211 L260.237,455.211 L260.237,449.811 L256.009,446.452 C255.807,446.71 253.54,449.597 251.273,454.578 C249.013,459.552 246.744,466.659 246.741,475.248 C246.741,478.757 247.123,482.51 248.04,486.429 L248.039,486.426 C248.646,489.036 249.808,491.424 251.306,493.54 C253.942,497.25 257.558,500.199 261.667,502.687 C267.841,506.404 275.218,509.098 282.724,510.942 C290.231,512.775 297.842,513.735 304.517,513.74 C308.58,513.734 312.288,513.394 315.574,512.547 C317.22,512.117 318.77,511.559 320.235,510.748 C321.689,509.937 323.104,508.849 324.206,507.258 C327.42,502.586 329.485,497.657 330.733,492.861 C331.982,488.061 332.425,483.391 332.426,479.133 C332.424,473.329 331.604,468.282 330.783,464.636 C329.96,460.99 329.131,458.744 329.064,458.563 L324.005,460.45 L326.83,465.052 L324.005,460.45 L318.945,462.336 L320.548,461.739 L318.941,462.326 L318.945,462.336 L320.548,461.739 L318.941,462.326 C318.964,462.388 319.646,464.272 320.313,467.302 C320.98,470.331 321.627,474.507 321.626,479.133 C321.626,482.639 321.257,486.398 320.282,490.139 C319.305,493.884 317.735,497.605 315.307,501.138 L315.933,501.568 L315.373,501.053 L315.308,501.138 L315.933,501.568 L315.373,501.053 L315.459,501.132 L315.378,501.048 L315.373,501.053 L315.459,501.132 L315.378,501.048 C315.369,501.062 315.113,501.276 314.581,501.511 C313.788,501.874 312.417,502.271 310.683,502.53 C308.945,502.795 306.842,502.94 304.517,502.939 C300.231,502.941 295.196,502.452 290.087,501.489 C282.422,500.055 274.563,497.523 268.676,494.265 C265.732,492.646 263.294,490.852 261.592,489.069 C260.738,488.178 260.066,487.296 259.569,486.446 C259.071,485.594 258.745,484.78 258.557,483.974 L258.556,483.971 C257.835,480.889 257.541,477.977 257.541,475.248 C257.538,468.589 259.317,462.977 261.105,459.046 C261.997,457.084 262.886,455.55 263.529,454.54 C263.85,454.034 264.109,453.66 264.276,453.428 C264.359,453.312 264.419,453.231 264.452,453.188 L264.48,453.151 L262.773,451.827 L264.465,453.17 L264.48,453.151 L262.773,451.827 L264.465,453.17 C265.75,451.552 265.999,449.325 265.1,447.464 C264.202,445.603 262.304,444.411 260.237,444.411 L260.172,444.411 L260.172,447.007 L260.765,444.47 C260.631,444.438 260.437,444.411 260.172,444.411 L260.172,447.007 L260.765,444.47 L260.569,445.305 L260.958,444.532 C260.951,444.528 260.882,444.497 260.765,444.47 L260.569,445.305 L260.958,444.532 L260.93,444.516 C260.851,444.462 260.566,444.269 260.12,443.645 C259.455,442.719 258.458,440.78 257.66,437.219 C256.858,433.664 256.26,428.52 256.262,421.332 C256.262,417.153 256.462,412.282 256.929,406.627 C257.605,398.4 259.264,391.528 261.613,385.878 C263.375,381.638 265.524,378.082 267.962,375.114 C271.625,370.665 275.933,367.513 280.771,365.41 C285.606,363.313 290.994,362.283 296.722,362.283 C302.462,362.281 308.532,363.325 314.602,365.344 C319.524,366.977 323.744,368.783 327.249,370.783 C329.879,372.283 332.106,373.887 333.966,375.606 C336.756,378.192 338.739,381.005 340.11,384.355 C341.474,387.705 342.22,391.65 342.222,396.471 C342.227,402.605 340.981,410.127 338.314,419.178 L338.313,419.181 C333.448,435.761 328.743,445.238 325.463,450.385 C323.824,452.96 322.544,454.455 321.781,455.239 C321.4,455.631 321.147,455.845 321.042,455.931 L320.99,455.971 L320.985,455.975 L322.601,458.164 L321.179,455.848 C321.046,455.93 320.985,455.975 320.985,455.975 L322.601,458.164 L321.179,455.848 C318.984,457.196 318.045,459.922 318.945,462.336 L324.005,460.45" fill="#483930"/>
    <path d="M268.563,492.808 C265.435,501.829 258.241,507.524 252.511,505.534 C246.787,503.552 244.678,494.622 247.813,485.601 C250.95,476.587 256.132,476.657 261.862,478.626 C267.593,480.63 271.698,483.794 268.563,492.808" fill="#1A1919"/>
    <path d="M268.563,492.808 L263.461,491.038 C262.378,494.182 260.665,496.761 258.948,498.379 C258.095,499.192 257.25,499.761 256.541,500.094 C255.826,500.431 255.27,500.531 254.89,500.53 C254.65,500.529 254.466,500.496 254.28,500.432 C254.046,500.348 253.844,500.234 253.588,499.998 C253.213,499.651 252.737,498.977 252.37,497.919 C252.001,496.87 251.757,495.468 251.759,493.866 C251.757,491.905 252.117,489.656 252.913,487.376 C253.341,486.143 253.782,485.232 254.173,484.599 C254.467,484.123 254.729,483.803 254.941,483.59 C255.264,483.271 255.451,483.174 255.648,483.091 C255.847,483.016 256.099,482.956 256.544,482.954 C257.285,482.942 258.551,483.188 260.105,483.732 L260.08,483.723 C260.997,484.043 261.781,484.373 262.38,484.694 C262.83,484.934 263.175,485.165 263.418,485.365 C263.787,485.673 263.924,485.871 264.031,486.083 C264.13,486.301 264.24,486.596 264.246,487.291 C264.25,488.053 264.068,489.297 263.462,491.036 L268.563,492.808 L273.665,494.579 C274.552,492.014 275.043,489.624 275.046,487.291 C275.05,485.436 274.714,483.614 274.021,481.974 C273.506,480.744 272.799,479.634 271.989,478.692 C270.77,477.272 269.352,476.231 267.934,475.424 C266.509,474.617 265.066,474.027 263.644,473.528 L263.619,473.519 C261.478,472.791 259.167,472.165 256.544,472.153 C255.17,472.152 253.705,472.345 252.254,472.836 C251.168,473.203 250.099,473.738 249.116,474.427 C247.635,475.461 246.367,476.822 245.322,478.397 C244.274,479.977 243.428,481.775 242.713,483.826 C241.535,487.213 240.961,490.617 240.959,493.866 C240.966,497.409 241.629,500.791 243.16,503.79 C243.929,505.284 244.928,506.682 246.198,507.874 C247.464,509.065 249.012,510.04 250.743,510.636 C252.095,511.106 253.507,511.331 254.89,511.33 C257.117,511.329 259.234,510.765 261.149,509.861 C264.027,508.495 266.509,506.384 268.618,503.789 C270.722,501.187 272.45,498.075 273.665,494.577 L268.563,492.808" fill="#483930"/>
    <path d="M290.282,499.241 C287.14,508.263 279.96,513.958 274.229,511.968 C268.507,509.985 266.397,501.056 269.526,492.034 C272.655,483.02 277.845,483.091 283.575,485.06 C289.306,487.063 293.419,490.227 290.282,499.241" fill="#1A1919"/>
    <path d="M290.282,499.241 L285.183,497.464 C284.093,500.613 282.377,503.195 280.661,504.814 C279.807,505.626 278.963,506.195 278.255,506.528 C277.542,506.865 276.987,506.964 276.608,506.963 C276.369,506.962 276.186,506.929 275.999,506.866 C275.765,506.782 275.563,506.668 275.308,506.432 C274.932,506.084 274.455,505.409 274.088,504.35 C273.719,503.298 273.475,501.894 273.477,500.29 C273.475,498.331 273.834,496.083 274.627,493.807 L274.627,493.804 C275.054,492.573 275.494,491.663 275.884,491.031 C276.177,490.555 276.439,490.236 276.65,490.023 C276.973,489.705 277.159,489.608 277.357,489.525 C277.556,489.45 277.809,489.389 278.256,489.387 C278.999,489.376 280.265,489.622 281.817,490.165 L281.793,490.157 C282.71,490.477 283.495,490.808 284.095,491.128 C284.546,491.368 284.891,491.6 285.135,491.8 C285.504,492.108 285.642,492.308 285.75,492.52 C285.849,492.738 285.959,493.033 285.965,493.727 C285.968,494.488 285.787,495.732 285.181,497.468 L285.183,497.464 L290.282,499.241 L295.383,501.014 C296.271,498.45 296.762,496.061 296.765,493.727 C296.769,491.872 296.433,490.048 295.739,488.407 C295.223,487.178 294.515,486.067 293.704,485.125 C292.484,483.706 291.066,482.665 289.647,481.857 C288.223,481.05 286.779,480.461 285.357,479.962 L285.333,479.953 C283.191,479.225 280.878,478.598 278.256,478.587 C276.881,478.586 275.416,478.778 273.965,479.27 C272.878,479.637 271.809,480.171 270.825,480.861 C269.344,481.894 268.075,483.256 267.031,484.832 C265.983,486.413 265.138,488.212 264.425,490.264 L264.425,490.261 C263.25,493.646 262.679,497.045 262.677,500.29 C262.684,503.835 263.347,507.219 264.877,510.219 C265.646,511.714 266.645,513.112 267.916,514.306 C269.181,515.498 270.73,516.473 272.461,517.07 C273.813,517.54 275.226,517.765 276.608,517.764 C278.835,517.763 280.952,517.198 282.866,516.294 C285.743,514.927 288.223,512.816 290.331,510.222 C292.434,507.622 294.162,504.512 295.381,501.018 L295.383,501.014 L290.282,499.241" fill="#483930"/>
    <path d="M313.401,507.292 C310.272,516.313 303.087,522.009 297.356,520.019 C291.632,518.036 289.53,509.106 292.659,500.085 C295.788,491.071 300.978,491.142 306.708,493.124 C312.438,495.114 316.537,498.278 313.401,507.292" fill="#1A1919"/>
    <path d="M313.401,507.292 L308.299,505.522 C307.216,508.667 305.503,511.247 303.788,512.865 C302.935,513.677 302.092,514.246 301.383,514.579 C300.669,514.915 300.114,515.015 299.735,515.014 C299.496,515.013 299.313,514.98 299.126,514.916 L299.124,514.915 C298.892,514.832 298.69,514.719 298.435,514.483 C298.061,514.137 297.584,513.463 297.218,512.405 C296.85,511.355 296.606,509.953 296.608,508.35 C296.606,506.388 296.965,504.137 297.759,501.858 L297.76,501.855 C298.187,500.626 298.626,499.716 299.016,499.084 C299.309,498.609 299.57,498.29 299.781,498.077 C300.104,497.758 300.29,497.662 300.486,497.58 C300.683,497.504 300.933,497.444 301.377,497.442 C302.117,497.431 303.385,497.678 304.94,498.226 L304.937,498.225 C305.852,498.542 306.633,498.871 307.23,499.188 C307.679,499.426 308.021,499.656 308.264,499.854 C308.63,500.16 308.765,500.356 308.872,500.567 C308.97,500.782 309.08,501.077 309.085,501.77 C309.089,502.533 308.907,503.78 308.3,505.52 L313.401,507.292 L318.502,509.063 C319.391,506.496 319.882,504.105 319.886,501.77 C319.889,499.917 319.554,498.096 318.861,496.456 C318.347,495.227 317.639,494.118 316.829,493.176 C315.609,491.757 314.191,490.717 312.772,489.912 C311.347,489.105 309.903,488.519 308.479,488.022 L308.476,488.021 C306.328,487.286 304.008,486.653 301.377,486.642 C300.002,486.641 298.538,486.834 297.087,487.327 C296.001,487.693 294.932,488.229 293.95,488.918 C292.47,489.953 291.204,491.313 290.161,492.888 C289.114,494.467 288.27,496.265 287.558,498.314 L287.559,498.311 C286.382,501.699 285.81,505.102 285.808,508.35 C285.815,511.892 286.477,515.273 288.006,518.272 C288.774,519.767 289.773,521.165 291.044,522.358 C292.309,523.549 293.858,524.524 295.589,525.121 L295.586,525.12 C296.94,525.591 298.353,525.815 299.735,525.814 C301.962,525.813 304.079,525.249 305.994,524.345 C308.871,522.978 311.351,520.867 313.459,518.271 C315.562,515.67 317.288,512.558 318.503,509.061 L313.401,507.292" fill="#483930"/>
    <path d="M17.386,347.036 C17.386,347.036 3.667,372.468 13.258,377.073 C22.862,381.665 41.243,363.56 41.243,363.56 L17.386,347.036" fill="#1A1919"/>
    <path d="M17.386,347.036 L12.633,344.472 C12.574,344.583 10.617,348.21 8.617,353.121 C7.618,355.58 6.605,358.36 5.82,361.238 C5.04,364.124 4.461,367.09 4.452,370.106 C4.459,372.209 4.731,374.39 5.703,376.561 C6.189,377.64 6.867,378.704 7.754,379.64 C8.638,380.577 9.727,381.371 10.919,381.94 L10.928,381.945 C12.851,382.866 14.886,383.221 16.794,383.218 C18.685,383.216 20.483,382.889 22.205,382.394 C25.215,381.518 28.028,380.123 30.662,378.564 C34.6,376.22 38.122,373.472 40.718,371.286 C43.309,369.101 44.959,367.478 45.032,367.407 C46.173,366.283 46.761,364.691 46.623,363.095 C46.485,361.499 45.634,360.032 44.317,359.12 L20.46,342.597 C19.191,341.718 17.628,341.425 16.127,341.785 C14.626,342.144 13.365,343.114 12.633,344.472 L17.386,347.036 L14.311,351.475 L38.168,367.998 L41.243,363.56 L37.454,359.712 C37.351,359.816 33.833,363.237 29.354,366.487 C27.122,368.112 24.647,369.688 22.357,370.783 C21.215,371.331 20.122,371.758 19.163,372.031 C18.204,372.306 17.386,372.42 16.794,372.418 C16.174,372.415 15.825,372.313 15.587,372.201 L15.596,372.206 L15.573,372.194 L15.574,372.194 L15.469,372.339 L15.596,372.213 L15.574,372.194 L15.469,372.339 L15.596,372.213 L15.536,372.272 L15.604,372.222 L15.596,372.213 L15.536,372.272 L15.604,372.222 C15.601,372.219 15.511,372.099 15.419,371.743 C15.328,371.393 15.251,370.828 15.252,370.106 C15.244,368.568 15.606,366.373 16.239,364.08 C17.178,360.624 18.672,356.924 19.924,354.155 C20.55,352.768 21.114,351.608 21.517,350.806 C21.718,350.405 21.879,350.093 21.986,349.887 C22.041,349.784 22.081,349.707 22.107,349.658 L22.134,349.607 L22.139,349.598 L21.082,349.03 L22.138,349.6 L22.139,349.598 L21.082,349.03 L22.138,349.6 L17.386,347.036 L14.311,351.475 L17.386,347.036" fill="#483930"/>
    <path d="M37.776,361.358 C37.776,361.358 35.021,390.138 45.651,390.644 C56.269,391.157 66.183,367.335 66.183,367.335 L37.776,361.358" fill="#1A1919"/>
    <path d="M37.776,361.358 L32.401,360.843 C32.391,360.957 32.055,364.455 32.054,369.152 C32.055,371.418 32.132,373.965 32.374,376.573 C32.555,378.53 32.828,380.521 33.247,382.475 C33.563,383.941 33.96,385.388 34.488,386.796 C35.288,388.899 36.357,390.963 38.124,392.756 C39.006,393.645 40.079,394.449 41.327,395.035 C42.571,395.623 43.978,395.973 45.394,396.037 C45.616,396.048 45.814,396.051 45.99,396.051 C48.313,396.051 50.45,395.402 52.292,394.474 C53.913,393.658 55.346,392.626 56.662,391.485 C58.958,389.484 60.916,387.133 62.655,384.723 C65.252,381.109 67.336,377.342 68.81,374.438 C70.281,371.536 71.129,369.502 71.168,369.41 C71.783,367.931 71.707,366.236 70.961,364.819 C70.215,363.402 68.861,362.38 67.294,362.05 L38.888,356.074 C37.377,355.756 35.821,356.093 34.578,357.007 C33.334,357.921 32.548,359.306 32.401,360.843 L37.776,361.358 L36.665,366.643 L65.071,372.619 L66.183,367.335 L61.197,365.26 L61.196,365.261 C61.156,365.357 60.545,366.804 59.51,368.891 C58.735,370.455 57.72,372.378 56.541,374.352 C54.782,377.31 52.611,380.383 50.52,382.453 C49.482,383.491 48.475,384.266 47.671,384.704 C47.27,384.925 46.923,385.065 46.646,385.145 C46.367,385.226 46.16,385.25 45.99,385.25 L45.908,385.249 L45.882,385.247 L45.858,385.391 L45.914,385.257 L45.882,385.247 L45.858,385.391 L45.914,385.257 L45.914,385.255 C45.884,385.235 45.77,385.15 45.598,384.931 C45.295,384.556 44.855,383.764 44.479,382.665 C43.9,381.02 43.458,378.739 43.204,376.339 C42.944,373.935 42.854,371.402 42.854,369.152 C42.854,367.062 42.931,365.213 43.006,363.902 C43.044,363.246 43.082,362.725 43.109,362.375 C43.123,362.2 43.134,362.067 43.142,361.982 L43.15,361.891 L43.151,361.873 L42.575,361.818 L43.151,361.873 L42.575,361.818 L43.151,361.873 L37.776,361.358 L36.665,366.643 L37.776,361.358" fill="#483930"/>
    <path d="M66.239,368.517 C66.239,368.517 71.97,396.852 82.276,394.251 C92.592,391.649 95.151,365.964 95.151,365.964 L66.239,368.517" fill="#1A1919"/>
    <path d="M66.239,368.517 L60.946,369.587 C60.962,369.665 61.31,371.377 61.983,373.938 C62.489,375.858 63.177,378.255 64.057,380.81 C64.717,382.727 65.484,384.732 66.377,386.705 C67.728,389.665 69.31,392.553 71.486,395.028 C72.582,396.261 73.846,397.405 75.415,398.305 C76.971,399.202 78.895,399.825 80.945,399.819 C81.833,399.819 82.726,399.705 83.586,399.489 L83.597,399.487 C85.895,398.909 87.845,397.709 89.403,396.302 C90.775,395.065 91.888,393.662 92.849,392.183 C94.522,389.592 95.747,386.75 96.737,383.907 C98.212,379.645 99.132,375.368 99.712,372.102 C100.29,368.84 100.514,366.6 100.524,366.499 C100.683,364.905 100.117,363.306 98.991,362.167 C97.865,361.028 96.271,360.443 94.676,360.584 L65.764,363.137 C64.227,363.273 62.836,364.048 61.913,365.285 C60.989,366.521 60.64,368.074 60.946,369.587 L66.239,368.517 L66.714,373.895 L95.626,371.343 L95.151,365.964 L89.778,365.428 L89.777,365.43 C89.767,365.537 89.599,367.134 89.207,369.474 C88.912,371.228 88.491,373.4 87.922,375.661 C87.08,379.046 85.865,382.649 84.441,385.21 C83.739,386.491 82.992,387.494 82.359,388.105 C82.043,388.414 81.76,388.626 81.529,388.765 C81.295,388.905 81.117,388.973 80.956,389.015 L80.966,389.012 L80.931,389.019 L80.945,389.131 L80.945,389.019 L80.931,389.019 L80.945,389.131 L80.945,389.019 L80.945,389.206 L80.977,389.021 L80.945,389.019 L80.945,389.206 L80.977,389.021 C80.967,389.019 80.901,389.001 80.765,388.923 C80.511,388.783 80.024,388.403 79.469,387.751 C78.485,386.62 77.343,384.713 76.347,382.539 C74.835,379.272 73.592,375.422 72.769,372.449 C72.354,370.96 72.04,369.686 71.833,368.796 C71.729,368.351 71.651,368.002 71.601,367.77 C71.576,367.654 71.557,367.567 71.546,367.513 L71.534,367.455 L71.531,367.444 L70.151,367.725 L71.532,367.446 L71.531,367.444 L70.151,367.725 L71.532,367.446 L66.239,368.517 L66.714,373.895 L66.239,368.517" fill="#483930"/>
    <path d="M18.089,340.827 C15.009,351.761 30.548,365.718 52.788,372.032 C75.056,378.325 95.608,374.577 98.702,363.644 C101.788,352.71 90.995,326.856 68.741,320.563 C46.495,314.249 21.204,329.894 18.089,340.827" fill="#84BF41"/>
    <path d="M18.089,340.827 L12.892,339.36 C12.492,340.775 12.298,342.231 12.298,343.674 C12.298,345.614 12.643,347.519 13.244,349.337 C14.302,352.523 16.115,355.456 18.438,358.196 C21.932,362.298 26.611,366 32.181,369.237 C37.752,372.467 44.222,375.212 51.313,377.227 L51.319,377.228 C59.094,379.423 66.69,380.481 73.632,380.483 C80.723,380.472 87.135,379.404 92.472,377.05 C95.136,375.866 97.545,374.341 99.545,372.36 C101.542,370.39 103.109,367.918 103.897,365.115 L103.899,365.109 C104.411,363.285 104.618,361.396 104.62,359.445 C104.612,355.591 103.809,351.456 102.336,347.197 C100.117,340.823 96.362,334.177 91.027,328.409 C88.358,325.528 85.29,322.875 81.816,320.634 C78.344,318.394 74.462,316.569 70.21,315.367 L70.216,315.369 C66.151,314.214 62.031,313.708 57.989,313.708 C52.648,313.71 47.44,314.585 42.573,316.034 C35.27,318.215 28.728,321.662 23.561,325.639 C20.977,327.633 18.734,329.763 16.913,332.019 C15.099,334.281 13.671,336.664 12.895,339.348 L12.892,339.36 L18.089,340.827 L23.282,342.306 C23.424,341.798 23.752,341.048 24.315,340.18 C25.292,338.653 26.969,336.791 29.178,334.971 C32.49,332.227 36.979,329.558 41.992,327.633 C47.008,325.7 52.542,324.505 57.989,324.509 C61.133,324.509 64.249,324.901 67.266,325.758 L67.272,325.759 C71.478,326.95 75.222,328.96 78.519,331.526 C83.46,335.366 87.363,340.492 89.966,345.649 C91.269,348.223 92.246,350.798 92.885,353.174 C93.527,355.547 93.822,357.726 93.819,359.445 C93.821,360.603 93.685,361.547 93.504,362.178 L93.506,362.172 C93.255,363.037 92.801,363.829 91.941,364.692 C91.297,365.331 90.419,365.984 89.293,366.59 C87.609,367.502 85.373,368.296 82.715,368.839 C80.057,369.384 76.983,369.684 73.632,369.683 C67.794,369.685 61.122,368.777 54.256,366.835 L54.263,366.837 C44.718,364.137 36.534,359.898 31.02,355.398 C28.26,353.158 26.18,350.86 24.887,348.801 C24.237,347.772 23.782,346.808 23.499,345.948 C23.214,345.086 23.099,344.335 23.099,343.674 C23.099,343.183 23.161,342.737 23.286,342.293 L23.282,342.306 L18.089,340.827" fill="#483930"/>
    <path d="M18.546,160.954 C-5.684,249.724 12.871,323.847 78.522,351.36 C144.181,378.852 205.88,342.36 256.308,260.565 C305.308,181.099 299.255,95.282 202.743,54.852 C104.841,13.839 43.142,70.897 18.546,160.954" fill="#84BF41"/>
    <path d="M18.546,160.954 L13.336,159.532 C6.464,184.713 2.951,208.819 2.949,231.193 C2.95,260.058 8.805,286.089 20.992,307.61 C27.083,318.364 34.758,327.973 44.012,336.174 C53.265,344.377 64.091,351.168 76.435,356.34 C91.607,362.696 106.728,365.815 121.591,365.813 C134.609,365.814 147.412,363.421 159.848,358.825 C178.511,351.929 196.337,340.112 213.202,324.029 C230.069,307.939 245.999,287.57 260.904,263.399 C270.778,247.384 278.497,231.066 283.758,214.813 C289.018,198.562 291.82,182.371 291.821,166.64 C291.822,154.588 290.172,142.808 286.723,131.527 C281.555,114.603 272.316,98.826 258.737,84.999 C245.159,71.164 227.279,59.275 204.829,49.872 C182.162,40.375 161.168,35.922 141.91,35.921 C125.431,35.918 110.239,39.196 96.518,45.275 C86.225,49.831 76.763,55.95 68.16,63.381 C55.253,74.529 44.275,88.61 35.161,104.866 C26.047,121.125 18.789,139.569 13.336,159.531 L18.546,160.954 L23.755,162.377 C28.426,145.271 34.448,129.436 41.773,115.348 C52.765,94.207 66.671,77.035 83.311,65.195 C91.635,59.271 100.647,54.666 110.391,51.529 C120.135,48.394 130.618,46.722 141.91,46.721 C159.493,46.721 179.062,50.787 200.656,59.833 C214.888,65.795 227.016,72.733 237.195,80.442 C252.464,92.012 263.36,105.291 270.498,119.784 C277.629,134.28 281.017,150.034 281.021,166.64 C281.022,181.083 278.442,196.165 273.482,211.488 C268.524,226.809 261.186,242.366 251.711,257.731 C232.353,289.139 211.4,313.581 189.526,330.037 C178.589,338.269 167.43,344.511 156.105,348.694 C144.778,352.877 133.288,355.011 121.591,355.013 C108.238,355.01 94.593,352.232 80.608,346.379 C69.293,341.636 59.517,335.484 51.176,328.092 C38.672,317.002 29.361,303.107 23.119,286.794 C16.883,270.487 13.749,251.757 13.75,231.193 C13.748,209.952 17.095,186.769 23.755,162.376 L18.546,160.954" fill="#483930"/>
    <path d="M188.878,126.796 C186.896,162.747 214.443,193.487 250.401,195.477 C286.353,197.446 317.114,169.897 319.083,133.954 C321.065,97.989 293.524,67.241 257.56,65.272 C221.595,63.29 190.847,90.831 188.878,126.796" fill="#F7F1D6"/>
    <path d="M188.878,126.796 L183.486,126.498 C183.413,127.818 183.376,129.132 183.376,130.441 C183.375,149.042 190.663,166.15 202.635,178.83 C214.6,191.516 231.314,199.832 250.103,200.869 L250.106,200.869 C251.418,200.941 252.725,200.976 254.023,200.976 C272.63,200.977 289.747,193.689 302.434,181.717 C315.127,169.752 323.448,153.037 324.475,134.249 C324.547,132.927 324.583,131.613 324.583,130.306 C324.583,111.699 317.298,94.587 305.326,81.906 C293.362,69.218 276.646,60.906 257.854,59.88 C256.535,59.808 255.22,59.771 253.911,59.771 C235.304,59.77 218.192,67.056 205.511,79.028 C192.823,90.992 184.511,107.708 183.486,126.501 L194.27,127.091 C195.145,111.14 202.162,97.045 212.923,86.883 C223.69,76.728 238.144,70.573 253.911,70.571 C255.021,70.571 256.138,70.602 257.262,70.664 C273.214,71.54 287.309,78.557 297.471,89.318 C307.625,100.085 313.781,114.539 313.782,130.306 C313.782,131.418 313.752,132.536 313.691,133.659 C312.814,149.601 305.792,163.696 295.023,173.86 C284.25,184.017 269.789,190.175 254.023,190.176 C252.919,190.176 251.811,190.146 250.696,190.085 L250.7,190.086 C234.751,189.2 220.653,182.178 210.49,171.417 C200.334,160.65 194.178,146.201 194.177,130.441 C194.177,129.333 194.208,128.217 194.27,127.093 L188.878,126.796" fill="#483930"/>
    <path d="M193.687,134.354 C192.31,159.442 212.538,180.958 238.87,182.399 C265.224,183.854 287.688,164.681 289.073,139.593 C290.451,114.513 270.216,93.011 243.876,91.556 C217.53,90.114 195.065,109.274 193.687,134.354" fill="#3AAB47"/>
    <path d="M193.435,138.89 C192.556,154.78 204.733,168.372 220.624,169.251 C236.501,170.108 250.106,157.944 250.964,142.054 C251.843,126.163 239.665,112.579 223.788,111.714 C207.897,110.835 194.313,122.999 193.435,138.89" fill="#1A1919"/>
    <path d="M233.126,162.831 C232.556,173.294 240.558,182.224 251.021,182.786 C261.462,183.362 270.392,175.368 270.968,164.905 C271.552,154.464 263.536,145.52 253.087,144.958 C242.632,144.374 233.694,152.376 233.126,162.831" fill="#F7F1D6"/>
    <path d="M61.429,69.407 C59.454,105.351 86.995,136.099 122.96,138.081 C158.911,140.05 189.651,112.509 191.642,76.558 C193.616,40.593 166.062,9.853 130.118,7.884 C94.153,5.894 63.405,33.443 61.429,69.407" fill="#F7F1D6"/>
    <path d="M61.429,69.407 L56.037,69.111 C55.964,70.424 55.928,71.734 55.928,73.039 C55.927,91.639 63.213,108.75 75.186,121.432 C87.151,134.121 103.868,142.439 122.663,143.473 C123.978,143.545 125.284,143.58 126.583,143.58 C145.188,143.581 162.3,136.294 174.985,124.323 C187.676,112.359 195.995,95.644 197.033,76.856 L197.033,76.852 C197.105,75.536 197.141,74.227 197.141,72.924 C197.142,54.314 189.852,37.2 177.878,24.519 C165.913,11.831 149.197,3.518 130.413,2.492 L130.417,2.492 C129.091,2.419 127.771,2.382 126.457,2.382 C107.853,2.381 90.743,9.668 78.063,21.641 C65.378,33.606 57.066,50.322 56.037,69.111 L61.429,69.407 L66.82,69.703 C67.699,53.754 74.717,39.658 85.477,29.495 C96.242,19.339 110.693,13.183 126.457,13.182 C127.571,13.182 128.691,13.213 129.818,13.276 L129.823,13.276 C145.764,14.152 159.86,21.169 170.024,31.931 C180.181,42.699 186.339,57.154 186.34,72.924 C186.34,74.031 186.311,75.144 186.25,76.263 L186.25,76.259 C185.364,92.207 178.339,106.304 167.574,116.467 C156.803,126.623 142.348,132.779 126.583,132.78 C125.479,132.78 124.37,132.75 123.255,132.689 C107.303,131.807 93.205,124.784 83.041,114.02 C72.885,103.251 66.729,88.799 66.728,73.039 C66.728,71.936 66.759,70.823 66.82,69.704 L61.429,69.407" fill="#483930"/>
    <path d="M173.747,112.206 C159.431,132.843 130.237,137.399 108.567,122.366 C86.896,107.319 80.94,78.386 95.257,57.749 C109.587,37.113 138.767,32.564 160.437,47.611 C182.114,62.636 188.069,91.569 173.747,112.206" fill="#3AAB47"/>
    <path d="M171.159,115.954 C162.089,129.011 144.124,132.267 131.067,123.196 C117.989,114.126 114.74,96.175 123.804,83.097 C132.874,70.019 150.825,66.784 163.909,75.854 C176.981,84.925 180.229,102.876 171.159,115.954" fill="#1A1919"/>
    <path d="M125.132,110.448 C119.163,119.048 107.351,121.192 98.759,115.229 C90.151,109.253 88.021,97.44 93.991,88.849 C99.96,80.235 111.772,78.104 120.365,84.081 C128.972,90.044 131.103,101.856 125.132,110.448" fill="#F7F1D6"/>
    <path d="M16.756,204.611 C16.706,204.868 14.766,214.464 14.764,228.754 C14.77,243.255 16.751,262.629 24.96,281.946 C29.066,291.599 34.742,301.229 42.499,310.132 C50.252,319.036 60.087,327.2 72.403,333.929 C88.389,342.677 104.47,346.252 119.769,346.244 C135.565,346.242 150.508,342.481 163.991,336.934 C184.219,328.601 201.23,316.258 213.267,305.998 C225.298,295.734 232.344,287.531 232.478,287.376 C234.419,285.112 234.159,281.704 231.896,279.762 C229.632,277.82 226.223,278.081 224.282,280.345 L224.281,280.345 C224.087,280.577 211.985,294.549 192.855,308.302 C183.295,315.181 171.985,322.001 159.588,327.066 C147.188,332.136 133.725,335.445 119.769,335.443 C106.129,335.435 92,332.323 77.583,324.452 C66.366,318.319 57.581,311 50.642,303.038 C40.243,291.1 33.979,277.664 30.301,264.6 C26.624,251.544 25.562,238.887 25.564,228.754 C25.563,222.1 26.019,216.537 26.469,212.67 C26.695,210.737 26.918,209.228 27.083,208.218 C27.165,207.713 27.232,207.333 27.278,207.087 C27.3,206.964 27.317,206.875 27.328,206.821 L27.339,206.765 L27.34,206.757 L24.934,206.273 L27.339,206.762 L27.34,206.757 L24.934,206.273 L27.339,206.762 C27.933,203.839 26.045,200.989 23.123,200.395 C20.201,199.801 17.35,201.688 16.756,204.611" fill="#483930"/>
    <path d="M82.833,260.671 C82.833,260.671 96.993,223.532 80.751,224.39 C64.509,225.233 82.833,260.671 82.833,260.671" fill="#483930"/>
    <path d="M108.708,272.132 C108.708,272.132 147.239,262.345 137.185,249.548 C127.13,236.765 108.708,272.132 108.708,272.132" fill="#483930"/>
  </g>
</svg>
