<?xml version="1.0" encoding="utf-8"?><!-- Uploaded to: SVG Repo, www.svgrepo.com, Generator: SVG Repo Mixer Tools -->
<svg fill="#000000" width="800px" height="800px" viewBox="0 0 24 24" id="handphone-laptop" data-name="Line Color" xmlns="http://www.w3.org/2000/svg" class="icon line-color"><path id="primary" d="M19,3H5A1,1,0,0,0,4,4V9h7a1,1,0,0,1,1,1v5h8V4A1,1,0,0,0,19,3ZM12,15v2h8a1,1,0,0,0,1-1V15Z" style="fill: none; stroke: rgb(0, 0, 0); stroke-linecap: round; stroke-linejoin: round; stroke-width: 2;"></path><path id="secondary" d="M3,20V10A1,1,0,0,1,4,9h7a1,1,0,0,1,1,1V20a1,1,0,0,1-1,1H4A1,1,0,0,1,3,20Zm3.5-9h2L9,9H6Z" style="fill: none; stroke: rgb(44, 169, 188); stroke-linecap: round; stroke-linejoin: round; stroke-width: 2;"></path></svg>