<?xml version="1.0" ?>
<!-- Uploaded to: SVG Repo, www.svgrepo.com, Generator: SVG Repo Mixer Tools -->
<svg fill="#000000" width="800px" height="800px" viewBox="0 0 64 64" id="Layer_1_1_" version="1.1" xml:space="preserve" xmlns="http://www.w3.org/2000/svg" xmlns:xlink="http://www.w3.org/1999/xlink">
<g>
<path d="M39,37c-2.206,0-4,1.794-4,4v2h2v-2c0-1.103,0.897-2,2-2s2,0.897,2,2v0.873c0,0.485-0.176,0.953-0.495,1.317L34,50.625V53   h9v-2h-6.671l5.682-6.493C42.648,43.777,43,42.842,43,41.873V41C43,38.794,41.206,37,39,37z"/>
<path d="M55,48V37h-2.521L45,47.685V50h8v3h2v-3h2v-2H55z M53,48h-5.779L53,39.744V48z"/>
<path d="M54.763,31.46C54.909,30.314,55,29.155,55,28C55,13.112,42.888,1,28,1S1,13.112,1,28s12.112,27,27,27   c1.156,0,2.315-0.091,3.46-0.238C34.44,59.689,39.834,63,46,63c9.374,0,17-7.626,17-17C63,39.834,59.689,34.44,54.763,31.46z    M28,53C14.215,53,3,41.785,3,28S14.215,3,28,3s25,11.215,25,25c0,0.821-0.055,1.642-0.135,2.461   c-0.629-0.279-1.275-0.526-1.941-0.728C50.969,29.146,51,28.564,51,28C51,15.318,40.683,5,28,5S5,15.318,5,28s10.317,23,23,23   c0.565,0,1.147-0.031,1.733-0.076c0.202,0.666,0.448,1.312,0.728,1.941C29.643,52.945,28.821,53,28,53z M29,46   c0,1.01,0.105,1.994,0.275,2.957C28.843,48.984,28.417,49,28,49c-5.43,0-10.37-2.09-14.102-5.485l2.788-2.787l-1.414-1.414   l-2.788,2.787C9.301,38.602,7.289,34.035,7.051,29H11v-2H7.051c0.239-5.035,2.25-9.602,5.434-13.101l2.788,2.787l1.414-1.414   l-2.788-2.787C17.398,9.301,21.965,7.29,27,7.051V11h2V7.051c5.035,0.239,9.602,2.25,13.102,5.434l-2.788,2.787l1.414,1.414   l2.788-2.787C46.91,17.63,49,22.57,49,28c0,0.416-0.016,0.843-0.043,1.275C47.995,29.105,47.01,29,46,29C36.626,29,29,36.626,29,46   z M46,61c-8.271,0-15-6.729-15-15s6.729-15,15-15s15,6.729,15,15S54.271,61,46,61z"/>
<polygon points="27,27.586 22.293,32.293 23.707,33.707 29,28.414 29,17 27,17  "/>
</g>
</svg>