<svg width="40" height="40" viewBox="0 0 40 40" fill="none" xmlns="http://www.w3.org/2000/svg">
<circle cx="20" cy="20" r="20" fill="black"/>
<path d="M27.5921 14.69C26.5953 14.4708 25.6935 13.9414 25.0162 13.1779C24.3389 12.4143 23.9208 11.4559 23.8221 10.44V10H20.3721V23.67C20.3728 24.2766 20.1826 24.868 19.8285 25.3604C19.4744 25.8529 18.9744 26.2215 18.3992 26.414C17.8239 26.6065 17.2028 26.6131 16.6236 26.4329C16.0444 26.2527 15.5366 25.8948 15.1721 25.41C14.8455 24.9808 14.6456 24.4689 14.5948 23.932C14.5441 23.3951 14.6445 22.8548 14.8849 22.372C15.1252 21.8892 15.4958 21.4834 15.9548 21.2003C16.4138 20.9172 16.9428 20.7681 17.4821 20.77C17.7803 20.7683 18.0771 20.8121 18.3621 20.9V17.4C18.0304 17.3589 17.6962 17.3422 17.3621 17.35C16.1314 17.3829 14.937 17.7739 13.9252 18.4753C12.9133 19.1766 12.128 20.1578 11.6653 21.2986C11.2026 22.4395 11.0826 23.6905 11.32 24.8986C11.5575 26.1066 12.142 27.2191 13.0021 28.1C13.8836 28.9962 15.0116 29.6101 16.2428 29.8638C17.474 30.1175 18.7528 29.9994 19.9168 29.5246C21.0807 29.0498 22.0772 28.2397 22.7797 27.1973C23.4822 26.1548 23.859 24.9271 23.8621 23.67V16.67C25.2536 17.6639 26.9221 18.1956 28.6321 18.19V14.79C28.2962 14.7914 27.9611 14.7579 27.6321 14.69H27.5921Z" fill="white"/>
</svg>
